<?xml version="1.0" encoding="UTF-8" standalone="no"?>
<!DOCTYPE svg PUBLIC "-//W3C//DTD SVG 1.1//EN"
 "http://www.w3.org/Graphics/SVG/1.1/DTD/svg11.dtd">
<!-- Generated by graphviz version 2.38.0 (20140413.2041)
 -->
<!-- Title: g Pages: 1 -->
<svg width="85pt" height="85pt"
 viewBox="0.00 0.00 85.46 85.46" xmlns="http://www.w3.org/2000/svg" xmlns:xlink="http://www.w3.org/1999/xlink">
<g id="graph0" class="graph" transform="scale(1 1) rotate(0) translate(4 81.4603)">
<title>g</title>
<polygon fill="#262626" stroke="none" points="-4,4 -4,-81.4603 81.4603,-81.4603 81.4603,4 -4,4"/>
<!-- i1 -->
<g id="node1" class="node"><title>i1</title>
<polygon fill="none" stroke="black" points="77.4603,-38.7308 51.6385,-38.7308 51.6385,-0.00387269 77.4603,-0.00387269 77.4603,-38.7308"/>
<image xlink:href="specials\emoji-0009.png" width="25.8218px" height="38.7269px" preserveAspectRatio="xMinYMin meet" x="51.6385" y="-38.7308"/>
</g>
<!-- i3 -->
<g id="node3" class="node"><title>i3</title>
<polygon fill="none" stroke="black" points="51.6402,-77.4603 25.8201,-77.4603 25.8201,-38.7308 51.6402,-38.7308 51.6402,-77.4603"/>
<image xlink:href="specials\emoji-0089.png" width="25.8201px" height="38.7295px" preserveAspectRatio="xMinYMin meet" x="25.8201" y="-77.4603"/>
</g>
<!-- i5 -->
<g id="node5" class="node"><title>i5</title>
<polygon fill="none" stroke="black" points="25.8192,-38.7308 0,-38.7308 0,3.55271e-015 25.8192,3.55271e-015 25.8192,-38.7308"/>
<image xlink:href="specials\emoji-0012.png" width="25.8192px" height="38.7308px" preserveAspectRatio="xMinYMin meet" x="0" y="-38.7308"/>
</g>
<!-- i2 -->
<g id="node2" class="node"><title>i2</title>
<polygon fill="none" stroke="black" points="25.8201,-77.4603 0,-77.4603 0,-38.7308 25.8201,-38.7308 25.8201,-77.4603"/>
<image xlink:href="specials\emoji-2410.png" width="25.8201px" height="38.7295px" preserveAspectRatio="xMinYMin meet" x="0" y="-77.4603"/>
</g>
<!-- i4 -->
<g id="node4" class="node"><title>i4</title>
<polygon fill="none" stroke="black" points="77.4603,-77.4603 51.6402,-77.4603 51.6402,-38.7308 77.4603,-38.7308 77.4603,-77.4603"/>
<image xlink:href="specials\emoji-1858.png" width="25.8201px" height="38.7295px" preserveAspectRatio="xMinYMin meet" x="51.6402" y="-77.4603"/>
</g>
<!-- i6 -->
<g id="node6" class="node"><title>i6</title>
<polygon fill="none" stroke="black" points="51.6385,-38.7308 25.8192,-38.7308 25.8192,3.55271e-015 51.6385,3.55271e-015 51.6385,-38.7308"/>
<image xlink:href="specials\emoji-0022.png" width="25.8192px" height="38.7308px" preserveAspectRatio="xMinYMin meet" x="25.8192" y="-38.7308"/>
</g>
</g>
</svg>
