<?xml version="1.0" encoding="UTF-8" standalone="no"?>
<!DOCTYPE svg PUBLIC "-//W3C//DTD SVG 1.1//EN"
 "http://www.w3.org/Graphics/SVG/1.1/DTD/svg11.dtd">
<!-- Generated by graphviz version 2.38.0 (20140413.2041)
 -->
<!-- Title: g Pages: 1 -->
<svg width="184pt" height="124pt"
 viewBox="0.00 0.00 184.00 124.00" xmlns="http://www.w3.org/2000/svg" xmlns:xlink="http://www.w3.org/1999/xlink">
<g id="graph0" class="graph" transform="scale(1 1) rotate(0) translate(4 120)">
<title>g</title>
<polygon fill="#262626" stroke="none" points="-4,4 -4,-120 180,-120 180,4 -4,4"/>
<!-- i1 -->
<g id="node1" class="node"><title>i1</title>
<image xlink:href="specials\emoji-0009.png" width="56px" height="56px" preserveAspectRatio="xMinYMin meet" x="120" y="-56"/>
</g>
<!-- i3 -->
<g id="node3" class="node"><title>i3</title>
<image xlink:href="specials\emoji-0089.png" width="56px" height="56px" preserveAspectRatio="xMinYMin meet" x="60" y="-116"/>
</g>
<!-- i1&#45;&gt;i3 -->
<g id="edge1" class="edge"><title>i1&#45;&gt;i3</title>
<path fill="none" stroke="greenyellow" stroke-width="5" d="M119.757,-56.2431C119.605,-56.3951 119.453,-56.5471 119.301,-56.6992"/>
<polygon fill="greenyellow" stroke="greenyellow" stroke-width="5" points="120.083,-49.7293 116.106,-59.894 126.271,-55.9165 120.083,-49.7293"/>
</g>
<!-- i5 -->
<g id="node5" class="node"><title>i5</title>
<image xlink:href="specials\emoji-0012.png" width="56px" height="56px" preserveAspectRatio="xMinYMin meet" x="0" y="-56"/>
</g>
<!-- i1&#45;&gt;i5 -->
<g id="edge2" class="edge"><title>i1&#45;&gt;i5</title>
<path fill="none" stroke="greenyellow" stroke-width="5" d="M119.865,-28C104.032,-28 84.0277,-28 66.7318,-28"/>
<polygon fill="greenyellow" stroke="greenyellow" stroke-width="5" points="66.3742,-23.6251 56.3742,-28 66.3741,-32.3751 66.3742,-23.6251"/>
</g>
<!-- i2 -->
<g id="node2" class="node"><title>i2</title>
<image xlink:href="specials\emoji-2410.png" width="56px" height="56px" preserveAspectRatio="xMinYMin meet" x="0" y="-116"/>
</g>
<!-- i3&#45;&gt;i5 -->
<g id="edge4" class="edge"><title>i3&#45;&gt;i5</title>
<path fill="none" stroke="greenyellow" stroke-width="5" d="M59.7569,-59.7569C59.6049,-59.6049 59.4529,-59.4529 59.3008,-59.3008"/>
<polygon fill="greenyellow" stroke="greenyellow" stroke-width="5" points="66.2707,-60.0835 56.106,-56.106 60.0835,-66.2707 66.2707,-60.0835"/>
</g>
<!-- i4 -->
<g id="node4" class="node"><title>i4</title>
<image xlink:href="specials\emoji-1858.png" width="56px" height="56px" preserveAspectRatio="xMinYMin meet" x="120" y="-116"/>
</g>
<!-- i4&#45;&gt;i3 -->
<g id="edge6" class="edge"><title>i4&#45;&gt;i3</title>
<path fill="none" stroke="greenyellow" stroke-width="5" d="M119.757,-88C119.605,-88 119.453,-88 119.301,-88"/>
<polygon fill="greenyellow" stroke="greenyellow" stroke-width="5" points="126.106,-83.6253 116.106,-88 126.106,-92.3753 126.106,-83.6253"/>
</g>
<!-- i4&#45;&gt;i5 -->
<g id="edge5" class="edge"><title>i4&#45;&gt;i5</title>
<path fill="none" stroke="greenyellow" stroke-width="5" d="M119.865,-73.9327C103.733,-65.8666 83.2713,-55.6357 65.7557,-46.8779"/>
<polygon fill="greenyellow" stroke="greenyellow" stroke-width="5" points="67.2751,-42.7462 56.3742,-42.1871 63.3619,-50.5724 67.2751,-42.7462"/>
</g>
<!-- i5&#45;&gt;i2 -->
<g id="edge7" class="edge"><title>i5&#45;&gt;i2</title>
<path fill="none" stroke="greenyellow" stroke-width="5" d="M28,-56.2431C28,-56.3951 28,-56.5471 28,-56.6992"/>
<polygon fill="greenyellow" stroke="greenyellow" stroke-width="5" points="23.6253,-49.8939 28,-59.894 32.3753,-49.8942 23.6253,-49.8939"/>
</g>
<!-- i6 -->
<g id="node6" class="node"><title>i6</title>
<image xlink:href="specials\emoji-0022.png" width="56px" height="56px" preserveAspectRatio="xMinYMin meet" x="60" y="-56"/>
</g>
<!-- i6&#45;&gt;i2 -->
<g id="edge3" class="edge"><title>i6&#45;&gt;i2</title>
<path fill="none" stroke="greenyellow" stroke-width="5" d="M59.7569,-56.2431C59.6049,-56.3951 59.4529,-56.5471 59.3008,-56.6992"/>
<polygon fill="greenyellow" stroke="greenyellow" stroke-width="5" points="60.0835,-49.7293 56.106,-59.894 66.2707,-55.9165 60.0835,-49.7293"/>
</g>
<!-- i6&#45;&gt;i5 -->
<g id="edge8" class="edge"><title>i6&#45;&gt;i5</title>
<path fill="none" stroke="greenyellow" stroke-width="5" d="M59.7569,-28C59.6049,-28 59.4529,-28 59.3008,-28"/>
<polygon fill="greenyellow" stroke="greenyellow" stroke-width="5" points="66.1061,-23.6253 56.106,-28 66.1058,-32.3753 66.1061,-23.6253"/>
</g>
</g>
</svg>
