<?xml version="1.0" encoding="UTF-8" standalone="no"?>
<!DOCTYPE svg PUBLIC "-//W3C//DTD SVG 1.1//EN"
 "http://www.w3.org/Graphics/SVG/1.1/DTD/svg11.dtd">
<!-- Generated by graphviz version 2.38.0 (20140413.2041)
 -->
<!-- Title: g Pages: 1 -->
<svg width="280pt" height="313pt"
 viewBox="0.00 0.00 280.00 313.42" xmlns="http://www.w3.org/2000/svg" xmlns:xlink="http://www.w3.org/1999/xlink">
<g id="graph0" class="graph" transform="scale(1 1) rotate(0) translate(4 309.415)">
<title>g</title>
<polygon fill="#262626" stroke="none" points="-4,4 -4,-309.415 276,-309.415 276,4 -4,4"/>
<!-- i1 -->
<g id="node1" class="node"><title>i1</title>
<image xlink:href="specials\emoji-0009.png" width="56px" height="56px" preserveAspectRatio="xMinYMin meet" x="144" y="-180.708"/>
</g>
<!-- i3 -->
<g id="node3" class="node"><title>i3</title>
<image xlink:href="specials\emoji-0089.png" width="56px" height="56px" preserveAspectRatio="xMinYMin meet" x="180" y="-243.061"/>
</g>
<!-- i1&#45;&gt;i3 -->
<g id="edge1" class="edge"><title>i1&#45;&gt;i3</title>
<path fill="none" stroke="greenyellow" stroke-width="5" d="M188.315,-180.966C188.384,-181.086 188.454,-181.207 188.524,-181.328"/>
<polygon fill="greenyellow" stroke="greenyellow" stroke-width="5" points="182.883,-180.308 191.672,-186.781 190.461,-175.933 182.883,-180.308"/>
</g>
<!-- i5 -->
<g id="node5" class="node"><title>i5</title>
<image xlink:href="specials\emoji-0012.png" width="56px" height="56px" preserveAspectRatio="xMinYMin meet" x="108" y="-118.354"/>
</g>
<!-- i1&#45;&gt;i5 -->
<g id="edge2" class="edge"><title>i1&#45;&gt;i5</title>
<path fill="none" stroke="greenyellow" stroke-width="5" d="M155.685,-124.45C155.616,-124.329 155.546,-124.208 155.476,-124.087"/>
<polygon fill="greenyellow" stroke="greenyellow" stroke-width="5" points="161.117,-125.107 152.328,-118.634 153.539,-129.482 161.117,-125.107"/>
</g>
<!-- i2 -->
<g id="node2" class="node"><title>i2</title>
<image xlink:href="specials\emoji-2410.png" width="56px" height="56px" preserveAspectRatio="xMinYMin meet" x="0" y="-180.708"/>
</g>
<!-- i3&#45;&gt;i5 -->
<g id="edge4" class="edge"><title>i3&#45;&gt;i5</title>
<path fill="none" stroke="greenyellow" stroke-width="5" d="M191.662,-186.763C181.49,-169.145 168.296,-146.293 157.308,-127.26"/>
<polygon fill="greenyellow" stroke="greenyellow" stroke-width="5" points="161.062,-125.013 152.273,-118.54 153.484,-129.388 161.062,-125.013"/>
</g>
<!-- i4 -->
<g id="node4" class="node"><title>i4</title>
<image xlink:href="specials\emoji-1858.png" width="56px" height="56px" preserveAspectRatio="xMinYMin meet" x="216" y="-305.415"/>
</g>
<!-- i4&#45;&gt;i3 -->
<g id="edge6" class="edge"><title>i4&#45;&gt;i3</title>
<path fill="none" stroke="greenyellow" stroke-width="5" d="M227.685,-249.157C227.616,-249.037 227.546,-248.916 227.476,-248.795"/>
<polygon fill="greenyellow" stroke="greenyellow" stroke-width="5" points="233.117,-249.815 224.328,-243.342 225.539,-254.19 233.117,-249.815"/>
</g>
<!-- i4&#45;&gt;i5 -->
<g id="edge5" class="edge"><title>i4&#45;&gt;i5</title>
<path fill="none" stroke="greenyellow" stroke-width="5" d="M227.831,-249.41C209.062,-216.9 178.038,-163.165 157.313,-127.268"/>
<polygon fill="greenyellow" stroke="greenyellow" stroke-width="5" points="161.068,-125.023 152.279,-118.55 153.49,-129.398 161.068,-125.023"/>
</g>
<!-- i5&#45;&gt;i2 -->
<g id="edge7" class="edge"><title>i5&#45;&gt;i2</title>
<path fill="none" stroke="greenyellow" stroke-width="5" d="M107.906,-106.574C94.8838,-114.092 79.2271,-123.132 65.2368,-131.209"/>
<polygon fill="greenyellow" stroke="greenyellow" stroke-width="5" points="62.8011,-127.563 56.3283,-136.352 67.1761,-135.141 62.8011,-127.563"/>
</g>
<!-- i6 -->
<g id="node6" class="node"><title>i6</title>
<image xlink:href="specials\emoji-0022.png" width="56px" height="56px" preserveAspectRatio="xMinYMin meet" x="216" y="-56"/>
</g>
<!-- i6&#45;&gt;i2 -->
<g id="edge3" class="edge"><title>i6&#45;&gt;i2</title>
<path fill="none" stroke="greenyellow" stroke-width="5" d="M215.762,-44.3033C177.115,-66.6164 107.679,-106.705 64.9394,-131.381"/>
<polygon fill="greenyellow" stroke="greenyellow" stroke-width="5" points="62.7179,-127.611 56.2452,-136.4 67.0929,-135.189 62.7179,-127.611"/>
</g>
<!-- i6&#45;&gt;i5 -->
<g id="edge8" class="edge"><title>i6&#45;&gt;i5</title>
<path fill="none" stroke="greenyellow" stroke-width="5" d="M215.906,-44.22C202.884,-51.7385 187.227,-60.7778 173.237,-68.8551"/>
<polygon fill="greenyellow" stroke="greenyellow" stroke-width="5" points="170.801,-65.2096 164.328,-73.9985 175.176,-72.7873 170.801,-65.2096"/>
</g>
</g>
</svg>
