<?xml version="1.0" encoding="UTF-8" standalone="no"?>
<!DOCTYPE svg PUBLIC "-//W3C//DTD SVG 1.1//EN"
 "http://www.w3.org/Graphics/SVG/1.1/DTD/svg11.dtd">
<!-- Generated by graphviz version 2.38.0 (20140413.2041)
 -->
<!-- Title: g Pages: 1 -->
<svg width="214pt" height="210pt"
 viewBox="0.00 0.00 214.34 209.99" xmlns="http://www.w3.org/2000/svg" xmlns:xlink="http://www.w3.org/1999/xlink">
<g id="graph0" class="graph" transform="scale(1 1) rotate(0) translate(111.254 101.46)">
<title>g</title>
<polygon fill="#262626" stroke="none" points="-111.254,108.528 -111.254,-101.46 103.089,-101.46 103.089,108.528 -111.254,108.528"/>
<!-- i1 -->
<g id="node1" class="node"><title>i1</title>
<image xlink:href="specials\emoji-0009.png" width="56px" height="56px" preserveAspectRatio="xMinYMin meet" x="-31.4221" y="48.5284"/>
</g>
<!-- i3 -->
<g id="node3" class="node"><title>i3</title>
<image xlink:href="specials\emoji-0089.png" width="56px" height="56px" preserveAspectRatio="xMinYMin meet" x="28.0356" y="11.2221"/>
</g>
<!-- i1&#45;&gt;i3 -->
<g id="edge1" class="edge"><title>i1&#45;&gt;i3</title>
<path fill="none" stroke="greenyellow" stroke-width="5" d="M24.9137,58.7493C25.0333,58.6743 25.153,58.5992 25.2727,58.5241"/>
<polygon fill="greenyellow" stroke="greenyellow" stroke-width="5" points="16.9908,58.5557 27.7868,56.9466 21.6414,65.9676 16.9908,58.5557"/>
</g>
<!-- i5 -->
<g id="node5" class="node"><title>i5</title>
<image xlink:href="specials\emoji-0012.png" width="56px" height="56px" preserveAspectRatio="xMinYMin meet" x="-31.3022" y="-30.5884"/>
</g>
<!-- i1&#45;&gt;i5 -->
<g id="edge2" class="edge"><title>i1&#45;&gt;i5</title>
<path fill="none" stroke="greenyellow" stroke-width="5" d="M-3.37949,48.412C-3.37313,44.2148 -3.36649,39.8296 -3.35988,35.4687"/>
<polygon fill="greenyellow" stroke="greenyellow" stroke-width="5" points="-7.73493,35.4308 -3.34468,25.4375 1.01506,35.4441 -7.73493,35.4308"/>
</g>
<!-- i2 -->
<g id="node2" class="node"><title>i2</title>
<image xlink:href="specials\emoji-2410.png" width="56px" height="56px" preserveAspectRatio="xMinYMin meet" x="-107.254" y="-42.3382"/>
</g>
<!-- i3&#45;&gt;i5 -->
<g id="edge4" class="edge"><title>i3&#45;&gt;i5</title>
<path fill="none" stroke="greenyellow" stroke-width="5" d="M27.757,19.2965C27.6376,19.2124 27.5181,19.1282 27.3987,19.0441"/>
<polygon fill="greenyellow" stroke="greenyellow" stroke-width="5" points="30.5441,26.6126 24.8896,17.2761 35.5842,19.4598 30.5441,26.6126"/>
</g>
<!-- i4 -->
<g id="node4" class="node"><title>i4</title>
<image xlink:href="specials\emoji-1858.png" width="56px" height="56px" preserveAspectRatio="xMinYMin meet" x="43.0894" y="-57.3636"/>
</g>
<!-- i4&#45;&gt;i3 -->
<g id="edge6" class="edge"><title>i4&#45;&gt;i3</title>
<path fill="none" stroke="greenyellow" stroke-width="5" d="M64.8795,-1.07119C64.7155,-0.323969 64.5506,0.427176 64.3852,1.18077"/>
<polygon fill="greenyellow" stroke="greenyellow" stroke-width="5" points="68.6484,2.1652 62.2312,10.9947 60.1018,0.289265 68.6484,2.1652"/>
</g>
<!-- i4&#45;&gt;i5 -->
<g id="edge5" class="edge"><title>i4&#45;&gt;i5</title>
<path fill="none" stroke="greenyellow" stroke-width="5" d="M42.9651,-19.241C40.1878,-18.2414 37.3386,-17.2159 34.4848,-16.1888"/>
<polygon fill="greenyellow" stroke="greenyellow" stroke-width="5" points="35.7526,-11.9954 24.8618,-12.7252 32.7893,-20.2284 35.7526,-11.9954"/>
</g>
<!-- i5&#45;&gt;i2 -->
<g id="edge7" class="edge"><title>i5&#45;&gt;i2</title>
<path fill="none" stroke="greenyellow" stroke-width="5" d="M-31.5837,-6.96355C-34.6889,-7.44393 -37.8868,-7.93864 -41.0865,-8.43364"/>
<polygon fill="greenyellow" stroke="greenyellow" stroke-width="5" points="-41.9879,-4.14595 -51.2014,-9.99843 -40.6501,-12.7931 -41.9879,-4.14595"/>
</g>
<!-- i6 -->
<g id="node6" class="node"><title>i6</title>
<image xlink:href="specials\emoji-0022.png" width="56px" height="56px" preserveAspectRatio="xMinYMin meet" x="-69.147" y="-97.4604"/>
</g>
<!-- i6&#45;&gt;i2 -->
<g id="edge3" class="edge"><title>i6&#45;&gt;i2</title>
<path fill="none" stroke="greenyellow" stroke-width="5" d="M-60.6468,-41.2534C-60.6835,-41.2004 -60.7201,-41.1474 -60.7567,-41.0945"/>
<polygon fill="greenyellow" stroke="greenyellow" stroke-width="5" points="-51.5786,-46.6734 -60.8665,-40.9356 -58.7769,-51.6511 -51.5786,-46.6734"/>
</g>
<!-- i6&#45;&gt;i5 -->
<g id="edge8" class="edge"><title>i6&#45;&gt;i5</title>
<path fill="none" stroke="greenyellow" stroke-width="5" d="M-25.0974,-41.1006C-24.7952,-40.5667 -24.492,-40.0309 -24.1881,-39.494"/>
<polygon fill="greenyellow" stroke="greenyellow" stroke-width="5" points="-20.3736,-41.6363 -19.2558,-30.7785 -27.9887,-37.3267 -20.3736,-41.6363"/>
</g>
</g>
</svg>
