<?xml version="1.0" encoding="UTF-8" standalone="no"?>
<!DOCTYPE svg PUBLIC "-//W3C//DTD SVG 1.1//EN"
 "http://www.w3.org/Graphics/SVG/1.1/DTD/svg11.dtd">
<!-- Generated by graphviz version 2.38.0 (20140413.2041)
 -->
<!-- Title: g Pages: 1 -->
<svg width="223pt" height="340pt"
 viewBox="0.00 0.00 223.00 340.00" xmlns="http://www.w3.org/2000/svg" xmlns:xlink="http://www.w3.org/1999/xlink">
<g id="graph0" class="graph" transform="scale(1 1) rotate(0) translate(4 336)">
<title>g</title>
<polygon fill="#262626" stroke="none" points="-4,4 -4,-336 219,-336 219,4 -4,4"/>
<!-- i1 -->
<g id="node1" class="node"><title>i1</title>
<image xlink:href="specials\emoji-0009.png" width="56px" height="56px" preserveAspectRatio="xMinYMin meet" x="0" y="-56"/>
</g>
<!-- i3 -->
<g id="node3" class="node"><title>i3</title>
<image xlink:href="specials\emoji-0089.png" width="56px" height="56px" preserveAspectRatio="xMinYMin meet" x="47" y="-148"/>
</g>
<!-- i1&#45;&gt;i3 -->
<g id="edge1" class="edge"><title>i1&#45;&gt;i3</title>
<path fill="none" stroke="greenyellow" stroke-width="5" d="M42.1015,-56.003C46.4764,-64.3804 51.3716,-73.7541 56.0214,-82.6579"/>
<polygon fill="greenyellow" stroke="greenyellow" stroke-width="5" points="52.2388,-84.8661 60.746,-91.705 59.9949,-80.8157 52.2388,-84.8661"/>
</g>
<!-- i5 -->
<g id="node5" class="node"><title>i5</title>
<image xlink:href="specials\emoji-0012.png" width="56px" height="56px" preserveAspectRatio="xMinYMin meet" x="103" y="-240"/>
</g>
<!-- i1&#45;&gt;i5 -->
<g id="edge2" class="edge"><title>i1&#45;&gt;i5</title>
<path fill="none" stroke="greenyellow" stroke-width="5" d="M23.9521,-56.0222C21.5203,-81.5159 21.5558,-119.909 38,-148 50.5027,-169.358 73.4629,-185.022 93.4404,-195.389"/>
<polygon fill="greenyellow" stroke="greenyellow" stroke-width="5" points="91.7498,-199.433 102.654,-199.918 95.6094,-191.58 91.7498,-199.433"/>
</g>
<!-- i2 -->
<g id="node2" class="node"><title>i2</title>
<image xlink:href="specials\emoji-2410.png" width="56px" height="56px" preserveAspectRatio="xMinYMin meet" x="131" y="-332"/>
</g>
<!-- i3&#45;&gt;i5 -->
<g id="edge4" class="edge"><title>i3&#45;&gt;i5</title>
<path fill="none" stroke="greenyellow" stroke-width="5" d="M91.8018,-148.003C97.0693,-156.469 102.97,-165.952 108.562,-174.939"/>
<polygon fill="greenyellow" stroke="greenyellow" stroke-width="5" points="105.019,-177.526 114.016,-183.705 112.448,-172.903 105.019,-177.526"/>
</g>
<!-- i4 -->
<g id="node4" class="node"><title>i4</title>
<image xlink:href="specials\emoji-1858.png" width="56px" height="56px" preserveAspectRatio="xMinYMin meet" x="93" y="-56"/>
</g>
<!-- i4&#45;&gt;i3 -->
<g id="edge6" class="edge"><title>i4&#45;&gt;i3</title>
<path fill="none" stroke="greenyellow" stroke-width="5" d="M107.198,-56.003C102.917,-64.3804 98.1257,-73.7541 93.5748,-82.6579"/>
<polygon fill="greenyellow" stroke="greenyellow" stroke-width="5" points="89.6063,-80.8095 88.9508,-91.705 97.3976,-84.7918 89.6063,-80.8095"/>
</g>
<!-- i4&#45;&gt;i5 -->
<g id="edge5" class="edge"><title>i4&#45;&gt;i5</title>
<path fill="none" stroke="greenyellow" stroke-width="5" d="M122.497,-56.2472C124.211,-87.4312 127.027,-138.688 128.945,-173.596"/>
<polygon fill="greenyellow" stroke="greenyellow" stroke-width="5" points="124.592,-174.119 129.509,-183.864 133.329,-173.639 124.592,-174.119"/>
</g>
<!-- i5&#45;&gt;i2 -->
<g id="edge7" class="edge"><title>i5&#45;&gt;i2</title>
<path fill="none" stroke="greenyellow" stroke-width="5" d="M139.401,-240.003C141.952,-248.204 144.801,-257.36 147.518,-266.095"/>
<polygon fill="greenyellow" stroke="greenyellow" stroke-width="5" points="143.36,-267.456 150.508,-275.705 151.715,-264.857 143.36,-267.456"/>
</g>
<!-- i6 -->
<g id="node6" class="node"><title>i6</title>
<image xlink:href="specials\emoji-0022.png" width="56px" height="56px" preserveAspectRatio="xMinYMin meet" x="159" y="-148"/>
</g>
<!-- i6&#45;&gt;i2 -->
<g id="edge3" class="edge"><title>i6&#45;&gt;i2</title>
<path fill="none" stroke="greenyellow" stroke-width="5" d="M182.808,-148.247C178.011,-179.431 170.125,-230.688 164.755,-265.596"/>
<polygon fill="greenyellow" stroke="greenyellow" stroke-width="5" points="160.371,-265.315 163.175,-275.864 169.02,-266.646 160.371,-265.315"/>
</g>
<!-- i6&#45;&gt;i5 -->
<g id="edge8" class="edge"><title>i6&#45;&gt;i5</title>
<path fill="none" stroke="greenyellow" stroke-width="5" d="M170.198,-148.003C164.931,-156.469 159.03,-165.952 153.438,-174.939"/>
<polygon fill="greenyellow" stroke="greenyellow" stroke-width="5" points="149.552,-172.903 147.984,-183.705 156.981,-177.526 149.552,-172.903"/>
</g>
</g>
</svg>
