<?xml version="1.0" encoding="UTF-8" standalone="no"?>
<!DOCTYPE svg PUBLIC "-//W3C//DTD SVG 1.1//EN"
 "http://www.w3.org/Graphics/SVG/1.1/DTD/svg11.dtd">
<!-- Generated by graphviz version 2.38.0 (20140413.2041)
 -->
<!-- Title: g Pages: 1 -->
<svg width="209pt" height="209pt"
 viewBox="0.00 0.00 209.00 209.00" xmlns="http://www.w3.org/2000/svg" xmlns:xlink="http://www.w3.org/1999/xlink">
<g id="graph0" class="graph" transform="scale(1 1) rotate(0) translate(4 205)">
<title>g</title>
<polygon fill="#262626" stroke="none" points="-4,4 -4,-205 205,-205 205,4 -4,4"/>
<!-- i1 -->
<g id="node1" class="node"><title>i1</title>
<image xlink:href="specials\emoji-0009.png" width="56px" height="56px" preserveAspectRatio="xMinYMin meet" x="72.1221" y="-56.0348"/>
</g>
<!-- i3 -->
<g id="node3" class="node"><title>i3</title>
<image xlink:href="specials\emoji-0089.png" width="56px" height="56px" preserveAspectRatio="xMinYMin meet" x="141.613" y="-90.7526"/>
</g>
<!-- i1&#45;&gt;i3 -->
<g id="edge1" class="edge"><title>i1&#45;&gt;i3</title>
<path fill="none" stroke="greenyellow" stroke-width="5" d="M128.387,-42.1559C129.749,-42.8364 131.125,-43.5238 132.506,-44.2137"/>
<polygon fill="greenyellow" stroke="greenyellow" stroke-width="5" points="130.698,-48.201 141.599,-48.7566 134.608,-40.3735 130.698,-48.201"/>
</g>
<!-- i5 -->
<g id="node5" class="node"><title>i5</title>
<image xlink:href="specials\emoji-0012.png" width="56px" height="56px" preserveAspectRatio="xMinYMin meet" x="70.8945" y="-130.101"/>
</g>
<!-- i1&#45;&gt;i5 -->
<g id="edge2" class="edge"><title>i1&#45;&gt;i5</title>
<path fill="none" stroke="greenyellow" stroke-width="5" d="M99.658,-56.0362C99.6152,-58.617 99.5714,-61.2602 99.5275,-63.9112"/>
<polygon fill="greenyellow" stroke="greenyellow" stroke-width="5" points="95.1507,-63.9892 99.3593,-74.0604 103.899,-64.1343 95.1507,-63.9892"/>
</g>
<!-- i2 -->
<g id="node2" class="node"><title>i2</title>
<image xlink:href="specials\emoji-2410.png" width="56px" height="56px" preserveAspectRatio="xMinYMin meet" x="0.111888" y="-127.781"/>
</g>
<!-- i3&#45;&gt;i5 -->
<g id="edge4" class="edge"><title>i3&#45;&gt;i5</title>
<path fill="none" stroke="greenyellow" stroke-width="5" d="M141.256,-78.5305C139.527,-79.4927 137.775,-80.4678 136.016,-81.4461"/>
<polygon fill="greenyellow" stroke="greenyellow" stroke-width="5" points="133.868,-77.6346 127.257,-86.3199 138.123,-85.2807 133.868,-77.6346"/>
</g>
<!-- i4 -->
<g id="node4" class="node"><title>i4</title>
<image xlink:href="specials\emoji-1858.png" width="56px" height="56px" preserveAspectRatio="xMinYMin meet" x="144.679" y="-168.18"/>
</g>
<!-- i4&#45;&gt;i3 -->
<g id="edge6" class="edge"><title>i4&#45;&gt;i3</title>
<path fill="none" stroke="greenyellow" stroke-width="5" d="M171.555,-111.789C171.415,-108.272 171.271,-104.634 171.127,-101"/>
<polygon fill="greenyellow" stroke="greenyellow" stroke-width="5" points="175.494,-100.701 170.727,-90.8819 166.751,-101.047 175.494,-100.701"/>
</g>
<!-- i4&#45;&gt;i5 -->
<g id="edge5" class="edge"><title>i4&#45;&gt;i5</title>
<path fill="none" stroke="greenyellow" stroke-width="5" d="M144.363,-125.567C141.607,-124.144 138.784,-122.687 135.959,-121.229"/>
<polygon fill="greenyellow" stroke="greenyellow" stroke-width="5" points="137.906,-117.311 127.013,-116.613 133.893,-125.087 137.906,-117.311"/>
</g>
<!-- i5&#45;&gt;i2 -->
<g id="edge7" class="edge"><title>i5&#45;&gt;i2</title>
<path fill="none" stroke="greenyellow" stroke-width="5" d="M70.5123,-101.171C69.2143,-101.128 67.9031,-101.085 66.5862,-101.042"/>
<polygon fill="greenyellow" stroke="greenyellow" stroke-width="5" points="66.6384,-96.6665 56.5004,-100.711 66.3516,-105.412 66.6384,-96.6665"/>
</g>
<!-- i6 -->
<g id="node6" class="node"><title>i6</title>
<image xlink:href="specials\emoji-0022.png" width="56px" height="56px" preserveAspectRatio="xMinYMin meet" x="47.1939" y="-201.457"/>
</g>
<!-- i6&#45;&gt;i2 -->
<g id="edge3" class="edge"><title>i6&#45;&gt;i2</title>
<path fill="none" stroke="greenyellow" stroke-width="5" d="M57.1254,-145.182C55.3101,-142.342 53.4489,-139.429 51.5882,-136.517"/>
<polygon fill="greenyellow" stroke="greenyellow" stroke-width="5" points="55.1257,-133.928 46.0543,-127.858 47.7526,-138.64 55.1257,-133.928"/>
</g>
<!-- i6&#45;&gt;i5 -->
<g id="edge8" class="edge"><title>i6&#45;&gt;i5</title>
<path fill="none" stroke="greenyellow" stroke-width="5" d="M84.561,-145.255C85.1125,-143.595 85.6715,-141.912 86.233,-140.221"/>
<polygon fill="greenyellow" stroke="greenyellow" stroke-width="5" points="90.4398,-141.435 89.4401,-130.566 82.1359,-138.677 90.4398,-141.435"/>
</g>
</g>
</svg>
