<?xml version="1.0" encoding="UTF-8" standalone="no"?>
<!DOCTYPE svg PUBLIC "-//W3C//DTD SVG 1.1//EN"
 "http://www.w3.org/Graphics/SVG/1.1/DTD/svg11.dtd">
<!-- Generated by graphviz version 2.38.0 (20140413.2041)
 -->
<!-- Title: g Pages: 1 -->
<svg width="319pt" height="170pt"
 viewBox="0.00 0.00 319.35 169.86" xmlns="http://www.w3.org/2000/svg" xmlns:xlink="http://www.w3.org/1999/xlink">
<g id="graph0" class="graph" transform="scale(1 1) rotate(0) translate(4 165.855)">
<title>g</title>
<polygon fill="#262626" stroke="none" points="-4,4 -4,-165.855 315.346,-165.855 315.346,4 -4,4"/>
<!-- i1 -->
<g id="node1" class="node"><title>i1</title>
<image xlink:href="specials\emoji-0009.png" width="56px" height="56px" preserveAspectRatio="xMinYMin meet" x="2.84217e-014" y="-161.855"/>
</g>
<!-- i3 -->
<g id="node3" class="node"><title>i3</title>
<image xlink:href="specials\emoji-0089.png" width="56px" height="56px" preserveAspectRatio="xMinYMin meet" x="91.6732" y="-108.928"/>
</g>
<!-- i1&#45;&gt;i3 -->
<g id="edge1" class="edge"><title>i1&#45;&gt;i3</title>
<path fill="none" stroke="greenyellow" stroke-width="5" d="M56.0031,-117.688C64.4543,-112.808 73.8636,-107.376 82.8,-102.216"/>
<polygon fill="greenyellow" stroke="greenyellow" stroke-width="5" points="85.053,-105.967 91.5257,-97.1786 80.6779,-98.3897 85.053,-105.967"/>
</g>
<!-- i5 -->
<g id="node5" class="node"><title>i5</title>
<image xlink:href="specials\emoji-0012.png" width="56px" height="56px" preserveAspectRatio="xMinYMin meet" x="163.673" y="-108.928"/>
</g>
<!-- i1&#45;&gt;i5 -->
<g id="edge2" class="edge"><title>i1&#45;&gt;i5</title>
<path fill="none" stroke="greenyellow" stroke-width="5" d="M56.1364,-124.757C83.1529,-116.02 124.149,-102.763 153.979,-93.117"/>
<polygon fill="greenyellow" stroke="greenyellow" stroke-width="5" points="155.462,-97.2355 163.631,-89.9958 152.77,-88.91 155.462,-97.2355"/>
</g>
<!-- i2 -->
<g id="node2" class="node"><title>i2</title>
<image xlink:href="specials\emoji-2410.png" width="56px" height="56px" preserveAspectRatio="xMinYMin meet" x="255.346" y="-56"/>
</g>
<!-- i3&#45;&gt;i5 -->
<g id="edge4" class="edge"><title>i3&#45;&gt;i5</title>
<path fill="none" stroke="greenyellow" stroke-width="5" d="M147.716,-80.9276C149.508,-80.9276 151.327,-80.9276 153.155,-80.9276"/>
<polygon fill="greenyellow" stroke="greenyellow" stroke-width="5" points="153.588,-85.3027 163.588,-80.9276 153.588,-76.5527 153.588,-85.3027"/>
</g>
<!-- i4 -->
<g id="node4" class="node"><title>i4</title>
<image xlink:href="specials\emoji-1858.png" width="56px" height="56px" preserveAspectRatio="xMinYMin meet" x="0" y="-56"/>
</g>
<!-- i4&#45;&gt;i3 -->
<g id="edge6" class="edge"><title>i4&#45;&gt;i3</title>
<path fill="none" stroke="greenyellow" stroke-width="5" d="M56.0031,-44.1676C64.4543,-49.0469 73.8636,-54.4794 82.8,-59.6388"/>
<polygon fill="greenyellow" stroke="greenyellow" stroke-width="5" points="80.6779,-63.4654 91.5257,-64.6766 85.053,-55.8877 80.6779,-63.4654"/>
</g>
<!-- i4&#45;&gt;i5 -->
<g id="edge5" class="edge"><title>i4&#45;&gt;i5</title>
<path fill="none" stroke="greenyellow" stroke-width="5" d="M56.1364,-37.0986C83.1529,-45.835 124.149,-59.092 153.979,-68.7382"/>
<polygon fill="greenyellow" stroke="greenyellow" stroke-width="5" points="152.77,-72.9452 163.631,-71.8593 155.462,-64.6196 152.77,-72.9452"/>
</g>
<!-- i5&#45;&gt;i2 -->
<g id="edge7" class="edge"><title>i5&#45;&gt;i2</title>
<path fill="none" stroke="greenyellow" stroke-width="5" d="M219.676,-64.76C228.128,-59.8807 237.537,-54.4482 246.473,-49.2888"/>
<polygon fill="greenyellow" stroke="greenyellow" stroke-width="5" points="248.726,-53.0399 255.199,-44.251 244.351,-45.4622 248.726,-53.0399"/>
</g>
<!-- i6 -->
<g id="node6" class="node"><title>i6</title>
<image xlink:href="specials\emoji-0022.png" width="56px" height="56px" preserveAspectRatio="xMinYMin meet" x="255.346" y="-161.855"/>
</g>
<!-- i6&#45;&gt;i2 -->
<g id="edge3" class="edge"><title>i6&#45;&gt;i2</title>
<path fill="none" stroke="greenyellow" stroke-width="5" d="M283.346,-105.766C283.346,-93.6833 283.346,-79.3673 283.346,-66.3324"/>
<polygon fill="greenyellow" stroke="greenyellow" stroke-width="5" points="287.722,-66.2205 283.346,-56.2206 278.972,-66.2206 287.722,-66.2205"/>
</g>
<!-- i6&#45;&gt;i5 -->
<g id="edge8" class="edge"><title>i6&#45;&gt;i5</title>
<path fill="none" stroke="greenyellow" stroke-width="5" d="M255.343,-117.688C246.892,-112.808 237.483,-107.376 228.546,-102.216"/>
<polygon fill="greenyellow" stroke="greenyellow" stroke-width="5" points="230.669,-98.3897 219.821,-97.1786 226.294,-105.967 230.669,-98.3897"/>
</g>
</g>
</svg>
