<?xml version="1.0" encoding="UTF-8" standalone="no"?>
<!DOCTYPE svg PUBLIC "-//W3C//DTD SVG 1.1//EN"
 "http://www.w3.org/Graphics/SVG/1.1/DTD/svg11.dtd">
<!-- Generated by graphviz version 2.38.0 (20140413.2041)
 -->
<!-- Title: g Pages: 1 -->
<svg width="595pt" height="333pt"
 viewBox="0.00 0.00 594.95 333.49" xmlns="http://www.w3.org/2000/svg" xmlns:xlink="http://www.w3.org/1999/xlink">
<g id="graph0" class="graph" transform="scale(1 1) rotate(0) translate(4 329.489)">
<title>g</title>
<polygon fill="#262626" stroke="none" points="-4,4 -4,-329.489 590.947,-329.489 590.947,4 -4,4"/>
<!-- i1 -->
<g id="node1" class="node"><title>i1</title>
<image xlink:href="specials\emoji-0009.png" width="56px" height="56px" preserveAspectRatio="xMinYMin meet" x="2.84217e-014" y="-64.313"/>
</g>
<!-- i3 -->
<g id="node3" class="node"><title>i3</title>
<image xlink:href="specials\emoji-0089.png" width="56px" height="56px" preserveAspectRatio="xMinYMin meet" x="115.669" y="-125.673"/>
</g>
<!-- i1&#45;&gt;i3 -->
<g id="edge1" class="edge"><title>i1&#45;&gt;i3</title>
<path fill="none" stroke="greenyellow" stroke-width="5" d="M56.0003,-51.1666C71.0909,-59.1719 89.9133,-69.1568 106.245,-77.8204"/>
<polygon fill="greenyellow" stroke="greenyellow" stroke-width="5" points="104.642,-81.9223 115.526,-82.7437 108.742,-74.1926 104.642,-81.9223"/>
</g>
<!-- i5 -->
<g id="node5" class="node"><title>i5</title>
<image xlink:href="specials\emoji-0012.png" width="56px" height="56px" preserveAspectRatio="xMinYMin meet" x="286.826" y="-148.325"/>
</g>
<!-- i1&#45;&gt;i5 -->
<g id="edge2" class="edge"><title>i1&#45;&gt;i5</title>
<path fill="none" stroke="greenyellow" stroke-width="5" d="M56.0243,-44.5213C107.753,-59.6727 218.278,-92.0456 276.744,-109.17"/>
<polygon fill="greenyellow" stroke="greenyellow" stroke-width="5" points="275.861,-113.471 286.688,-112.083 278.321,-105.073 275.861,-113.471"/>
</g>
<!-- i2 -->
<g id="node2" class="node"><title>i2</title>
<image xlink:href="specials\emoji-2410.png" width="56px" height="56px" preserveAspectRatio="xMinYMin meet" x="523.7" y="-56"/>
</g>
<!-- i3&#45;&gt;i5 -->
<g id="edge4" class="edge"><title>i3&#45;&gt;i5</title>
<path fill="none" stroke="greenyellow" stroke-width="5" d="M171.932,-101.414C200.509,-105.196 244.867,-111.066 276.577,-115.263"/>
<polygon fill="greenyellow" stroke="greenyellow" stroke-width="5" points="276.318,-119.641 286.805,-116.616 277.466,-110.967 276.318,-119.641"/>
</g>
<!-- i4 -->
<g id="node4" class="node"><title>i4</title>
<image xlink:href="specials\emoji-1858.png" width="56px" height="56px" preserveAspectRatio="xMinYMin meet" x="138.274" y="-325.489"/>
</g>
<!-- i4&#45;&gt;i3 -->
<g id="edge6" class="edge"><title>i4&#45;&gt;i3</title>
<path fill="none" stroke="greenyellow" stroke-width="5" d="M163.083,-269.284C159.145,-234.475 152.431,-175.12 148.022,-136.149"/>
<polygon fill="greenyellow" stroke="greenyellow" stroke-width="5" points="152.315,-135.179 146.844,-125.735 143.621,-136.163 152.315,-135.179"/>
</g>
<!-- i4&#45;&gt;i5 -->
<g id="edge5" class="edge"><title>i4&#45;&gt;i5</title>
<path fill="none" stroke="greenyellow" stroke-width="5" d="M189.812,-269.417C215.488,-238.796 256.658,-189.696 284.681,-156.276"/>
<polygon fill="greenyellow" stroke="greenyellow" stroke-width="5" points="288.079,-159.032 291.152,-148.558 281.374,-153.41 288.079,-159.032"/>
</g>
<!-- i5&#45;&gt;i2 -->
<g id="edge7" class="edge"><title>i5&#45;&gt;i2</title>
<path fill="none" stroke="greenyellow" stroke-width="5" d="M342.929,-109.371C385.579,-92.7478 466.707,-61.1268 514.298,-42.5776"/>
<polygon fill="greenyellow" stroke="greenyellow" stroke-width="5" points="515.905,-46.6471 523.633,-38.9391 512.727,-38.4944 515.905,-46.6471"/>
</g>
<!-- i6 -->
<g id="node6" class="node"><title>i6</title>
<image xlink:href="specials\emoji-0022.png" width="56px" height="56px" preserveAspectRatio="xMinYMin meet" x="530.947" y="-226.313"/>
</g>
<!-- i6&#45;&gt;i2 -->
<g id="edge3" class="edge"><title>i6&#45;&gt;i2</title>
<path fill="none" stroke="greenyellow" stroke-width="5" d="M557.75,-170.189C556.544,-141.838 554.673,-97.8772 553.331,-66.3429"/>
<polygon fill="greenyellow" stroke="greenyellow" stroke-width="5" points="557.694,-65.9704 552.898,-56.1655 548.952,-66.3425 557.694,-65.9704"/>
</g>
<!-- i6&#45;&gt;i5 -->
<g id="edge8" class="edge"><title>i6&#45;&gt;i5</title>
<path fill="none" stroke="greenyellow" stroke-width="5" d="M530.943,-189.367C487.005,-175.33 401.81,-148.113 352.527,-132.369"/>
<polygon fill="greenyellow" stroke="greenyellow" stroke-width="5" points="353.735,-128.162 342.878,-129.286 351.072,-136.497 353.735,-128.162"/>
</g>
</g>
</svg>
